<svg width="125" height="96" viewBox="0 0 125 96" fill="none" xmlns="http://www.w3.org/2000/svg">
<mask id="mask0_1_3" style="mask-type:luminance" maskUnits="userSpaceOnUse" x="0" y="5" width="72" height="91">
<path d="M0 5H72V95.6667H0V5Z" fill="white"/>
</mask>
<g mask="url(#mask0_1_3)">
<mask id="mask1_1_3" style="mask-type:luminance" maskUnits="userSpaceOnUse" x="-16" y="-3" width="105" height="105">
<path d="M-15.9844 21.5052L64.3646 -2.15625L88.0208 78.1927L7.67708 101.854L-15.9844 21.5052Z" fill="white"/>
</mask>
<g mask="url(#mask1_1_3)">
<mask id="mask2_1_3" style="mask-type:luminance" maskUnits="userSpaceOnUse" x="-16" y="-3" width="105" height="105">
<path d="M-15.9844 21.5052L64.3646 -2.15625L88.0208 78.1927L7.67708 101.854L-15.9844 21.5052Z" fill="white"/>
</mask>
<g mask="url(#mask2_1_3)">
<path d="M64.4844 16.9271L48.2396 8.06773C45.0104 6.31252 41.7448 4.50523 39.2344 5.24481C36.724 5.98439 34.9688 9.26564 33.1875 12.5L3.09376 67.7084C1.41667 70.9375 -0.468744 74.2031 0.276047 76.7188C1.01563 79.2396 4.30209 81 7.52605 82.7604L23.776 91.6146C27 93.375 30.2708 95.1771 32.7813 94.4375C35.2917 93.6979 37.0521 90.4427 38.8385 87.2084L68.9167 31.9792C70.6667 28.724 72.4792 25.4844 71.7396 22.9636C70.9948 20.4427 67.7083 18.6823 64.4844 16.9271ZM42.1875 15.2865C42.8542 15.0886 43.5313 15.0313 44.2188 15.1042C44.9063 15.1771 45.5521 15.3802 46.1615 15.7084C46.7708 16.0365 47.2917 16.474 47.724 17.0104C48.1615 17.5469 48.4792 18.1511 48.6719 18.8125C48.8698 19.474 48.9323 20.1511 48.8594 20.8386C48.7865 21.5261 48.5885 22.1771 48.2604 22.7865C47.9271 23.3959 47.4948 23.9167 46.9583 24.3542C46.4219 24.7865 45.8229 25.1042 45.1563 25.3021C44.4948 25.5 43.8177 25.5677 43.1302 25.4948C42.4427 25.4219 41.7969 25.224 41.1875 24.8959C40.5781 24.5677 40.0521 24.1354 39.6146 23.599C39.1771 23.0625 38.8594 22.4636 38.6615 21.8021C38.4635 21.1354 38.401 20.4584 38.4688 19.7656C38.5417 19.0729 38.7448 18.4219 39.0729 17.8125C39.4063 17.2031 39.8385 16.6771 40.3802 16.2396C40.9219 15.8021 41.5208 15.4844 42.1875 15.2865ZM35.1042 28.2865C35.7708 28.0886 36.4479 28.0261 37.1406 28.099C37.8281 28.1667 38.4792 28.3698 39.0885 28.7031C39.6979 29.0313 40.224 29.4688 40.6563 30.0052C41.0938 30.5469 41.4115 31.1511 41.6094 31.8125C41.8073 32.4792 41.8698 33.1563 41.7969 33.849C41.724 34.5365 41.5208 35.1875 41.1927 35.7969C40.8594 36.4063 40.4271 36.9323 39.8854 37.3698C39.349 37.8073 38.7448 38.125 38.0781 38.3177C37.4167 38.5156 36.7344 38.5781 36.0469 38.5052C35.3542 38.4323 34.7083 38.2344 34.0938 37.9011C33.4844 37.5729 32.9635 37.1354 32.526 36.5938C32.0885 36.0573 31.7708 35.4531 31.5729 34.7917C31.3802 34.125 31.3229 33.4479 31.3958 32.7604C31.4688 32.0677 31.6719 31.4219 32 30.8125C32.3333 30.2031 32.7656 29.6771 33.3021 29.2396C33.8438 28.8021 34.4427 28.4844 35.1042 28.2865ZM28.0208 41.2813C28.6875 41.0834 29.3646 41.0209 30.0521 41.0938C30.7448 41.1667 31.3958 41.3698 32.0052 41.6979C32.6146 42.0313 33.1354 42.4636 33.5729 43.0052C34.0104 43.5469 34.3281 44.1459 34.526 44.8125C34.724 45.4792 34.7865 46.1563 34.7135 46.8438C34.6406 47.5365 34.4375 48.1875 34.1094 48.7969C33.776 49.4063 33.3438 49.9271 32.8021 50.3646C32.2656 50.8021 31.6615 51.1198 30.9948 51.3177C30.3281 51.5156 29.651 51.5781 28.9635 51.5052C28.2708 51.4323 27.6198 51.2292 27.0104 50.9011C26.401 50.5677 25.8802 50.1354 25.4427 49.5938C25.0052 49.0573 24.6875 48.4531 24.4896 47.7865C24.3906 47.4584 24.3281 47.1198 24.2969 46.7761C24.2656 46.4323 24.2656 46.0938 24.3021 45.75C24.3385 45.4063 24.4063 45.0729 24.5104 44.7396C24.6146 44.4115 24.75 44.099 24.9115 43.7969C25.0781 43.4948 25.2708 43.2084 25.4896 42.9427C25.7135 42.6823 25.9583 42.4427 26.224 42.224C26.4948 42.0104 26.7813 41.8177 27.0833 41.6615C27.3906 41.5 27.7083 41.375 28.0365 41.2761L28.0208 41.2813ZM20.9375 54.2813C21.6042 54.0834 22.2813 54.0209 22.9688 54.0938C23.6615 54.1667 24.3125 54.3698 24.9219 54.6979C25.5313 55.0313 26.0573 55.4688 26.4948 56.0052C26.9323 56.5469 27.2448 57.1511 27.4427 57.8177C27.6406 58.4844 27.7031 59.1615 27.6302 59.849C27.5521 60.5417 27.349 61.1927 27.0208 61.8021C26.6875 62.4115 26.25 62.9375 25.7083 63.3698C25.1667 63.8073 24.5677 64.125 23.901 64.3177C23.2344 64.5156 22.5521 64.5729 21.8646 64.5C21.1719 64.4271 20.5208 64.224 19.9115 63.8906C19.3021 63.5573 18.7813 63.1198 18.3438 62.5781C17.9115 62.0365 17.5938 61.4323 17.401 60.7656C17.3021 60.4375 17.2396 60.099 17.2083 59.7604C17.1771 59.4167 17.1771 59.0729 17.2135 58.7292C17.25 58.3906 17.3229 58.0521 17.4219 57.724C17.526 57.3959 17.6615 57.0834 17.8281 56.7813C17.9896 56.4792 18.1823 56.1979 18.4063 55.9323C18.625 55.6667 18.8698 55.4323 19.1406 55.2136C19.4063 55 19.6927 54.8125 20 54.6563C20.3073 54.4948 20.625 54.3698 20.9531 54.2761L20.9375 54.2813ZM16.8073 77.3177C16.1406 77.5156 15.4635 77.5729 14.776 77.5C14.0885 77.4219 13.4375 77.2188 12.8281 76.8854C12.2188 76.5573 11.6979 76.1198 11.2656 75.5781C10.8281 75.0365 10.5156 74.4375 10.3177 73.7709C10.1198 73.1042 10.0625 72.4271 10.1354 71.7396C10.2083 71.0469 10.4115 70.4011 10.7448 69.7917C11.0781 69.1823 11.5104 68.6615 12.0521 68.224C12.5885 67.7865 13.1927 67.474 13.8594 67.2761C14.5208 67.0781 15.1979 67.0156 15.8906 67.0886C16.5781 67.1615 17.2292 67.3646 17.8385 67.6979C18.4479 68.0261 18.9688 68.4636 19.4063 69C19.8438 69.5417 20.1615 70.1406 20.3594 70.8073C20.5521 71.474 20.6146 72.1511 20.5469 72.8386C20.474 73.5261 20.2708 74.1771 19.9427 74.7865C19.6094 75.3959 19.1771 75.9219 18.6406 76.3594C18.099 76.7969 17.5 77.1146 16.8333 77.3125L16.8073 77.3177ZM29.8073 84.4011C29.1406 84.5938 28.4688 84.6563 27.7813 84.5781C27.0938 84.5052 26.4427 84.3021 25.8385 83.9688C25.2344 83.6354 24.7135 83.1979 24.2813 82.6615C23.8438 82.125 23.5313 81.5209 23.3385 80.8594C23.1406 80.1927 23.0833 79.5209 23.1563 78.8334C23.2292 78.1459 23.4271 77.4948 23.7604 76.8906C24.0885 76.2813 24.526 75.7604 25.0625 75.3281C25.599 74.8906 26.1979 74.5729 26.8594 74.3802C27.526 74.1823 28.1979 74.1198 28.8854 74.1875C29.5729 74.2604 30.224 74.4584 30.8333 74.7917C31.4375 75.1198 31.9635 75.5521 32.401 76.0834C32.8333 76.6198 33.151 77.2188 33.3542 77.8854C33.5521 78.5469 33.6146 79.2292 33.5417 79.9167C33.4688 80.6094 33.2708 81.2604 32.9375 81.8698C32.6094 82.4844 32.1719 83.0052 31.6354 83.4427C31.0938 83.8802 30.4896 84.1979 29.8229 84.3959L29.8073 84.4011ZM36.8906 71.4063C36.224 71.599 35.5469 71.6615 34.8594 71.5834C34.1667 71.5104 33.5208 71.3073 32.9115 70.974C32.3021 70.6406 31.7813 70.2031 31.3438 69.6667C30.9115 69.125 30.5938 68.5209 30.401 67.8594C30.2031 67.1927 30.1458 66.5156 30.2188 65.8229C30.2917 65.1354 30.4948 64.4844 30.8281 63.875C31.1563 63.2656 31.5938 62.7448 32.1354 62.3125C32.6719 61.875 33.276 61.5573 33.9375 61.3646C34.6042 61.1667 35.2813 61.1042 35.974 61.1771C36.6615 61.25 37.3125 61.4531 37.9219 61.7813C38.5313 62.1146 39.0521 62.5521 39.4896 63.0886C39.9271 63.625 40.2396 64.2292 40.4375 64.8959C40.6302 65.5573 40.6927 66.2344 40.6198 66.9271C40.5417 67.6146 40.3438 68.2656 40.0104 68.875C39.6823 69.4792 39.2448 70.0052 38.7083 70.4427C38.1719 70.8802 37.5729 71.1979 36.9063 71.4011L36.8906 71.4063ZM43.974 58.4063C43.3073 58.6042 42.6302 58.6615 41.9427 58.5886C41.2552 58.5104 40.6042 58.3073 39.9948 57.974C39.3854 57.6459 38.8646 57.2084 38.4323 56.6667C37.9948 56.125 37.6771 55.5261 37.4844 54.8594C37.2865 54.1927 37.2292 53.5156 37.3021 52.8281C37.375 52.1354 37.5781 51.4896 37.9115 50.8802C38.2396 50.2709 38.6771 49.75 39.2188 49.3125C39.7552 48.875 40.3594 48.5625 41.026 48.3646C41.6875 48.1667 42.3646 48.1042 43.0573 48.1771C43.7448 48.25 44.3958 48.4531 45.0052 48.7865C45.6146 49.1146 46.1354 49.5521 46.5729 50.0886C47.0104 50.6302 47.3281 51.2292 47.526 51.8959C47.6198 52.2292 47.6875 52.5625 47.7188 52.9063C47.75 53.25 47.7448 53.5938 47.7083 53.9323C47.6719 54.2761 47.6042 54.6146 47.5 54.9427C47.401 55.2709 47.2656 55.5886 47.099 55.8906C46.9375 56.1927 46.7448 56.474 46.5208 56.7396C46.3021 57.0052 46.0573 57.2448 45.7865 57.4584C45.5208 57.6771 45.2344 57.8646 44.9271 58.0209C44.625 58.1823 44.3073 58.3125 43.974 58.4063ZM51.0573 45.4115C50.3906 45.6042 49.7135 45.6667 49.026 45.5886C48.3333 45.5156 47.6875 45.3125 47.0781 44.9792C46.4688 44.6459 45.9479 44.2084 45.5104 43.6667C45.0781 43.125 44.7604 42.5209 44.5677 41.8542C44.3698 41.1875 44.3125 40.5104 44.3854 39.8229C44.4635 39.1302 44.6667 38.4844 45 37.875C45.3333 37.2656 45.7708 36.7448 46.3125 36.3073C46.849 35.875 47.4531 35.5573 48.1198 35.3646C48.7865 35.1667 49.4635 35.1094 50.1563 35.1823C50.8438 35.2604 51.4948 35.4636 52.1042 35.7969C52.7135 36.1302 53.2344 36.5677 53.6667 37.1042C54.1042 37.6459 54.4167 38.25 54.6146 38.9167C54.7083 39.2448 54.776 39.5834 54.8073 39.9271C54.8385 40.2656 54.8333 40.6094 54.7969 40.9531C54.7604 41.2969 54.6927 41.6302 54.5885 41.9584C54.4844 42.2865 54.3542 42.599 54.1875 42.9011C54.0208 43.2031 53.8281 43.4896 53.6094 43.75C53.3854 44.0156 53.1406 44.2552 52.875 44.4688C52.6042 44.6823 52.3177 44.8698 52.0156 45.0313C51.7083 45.1875 51.3906 45.3125 51.0573 45.4115ZM58.1458 32.4115C57.4792 32.6042 56.7969 32.6667 56.1094 32.5938C55.4219 32.5156 54.7708 32.3125 54.1615 31.9792C53.5521 31.6459 53.0313 31.2084 52.5938 30.6667C52.1615 30.125 51.8438 29.5261 51.651 28.8594C51.4583 28.1927 51.3958 27.5156 51.4688 26.8229C51.5469 26.1354 51.75 25.4844 52.0833 24.875C52.4167 24.2656 52.8542 23.7448 53.3958 23.3073C53.9375 22.875 54.5365 22.5625 55.2031 22.3646C55.8698 22.1719 56.5469 22.1094 57.2396 22.1875C57.9271 22.2604 58.5781 22.4636 59.1875 22.7969C59.7969 23.1302 60.3177 23.5677 60.7552 24.1094C61.1875 24.6511 61.5052 25.2552 61.6979 25.9167C61.7969 26.25 61.8594 26.5886 61.8906 26.9271C61.9219 27.2709 61.9219 27.6146 61.8854 27.9584C61.8438 28.3021 61.776 28.6354 61.6719 28.9636C61.5677 29.2917 61.4375 29.6094 61.2708 29.9115C61.1042 30.2136 60.9115 30.4948 60.6875 30.7552C60.4688 31.0209 60.224 31.2604 59.9531 31.474C59.6823 31.6927 59.3958 31.875 59.0885 32.0365C58.7865 32.1927 58.4635 32.3177 58.1354 32.4167L58.1458 32.4115Z" fill="#1D4ED8"/>
</g>
</g>
</g>
<mask id="mask3_1_3" style="mask-type:luminance" maskUnits="userSpaceOnUse" x="41" y="65" width="27" height="29">
<path d="M41.1667 65.9844H67.0052V93.5417H41.1667V65.9844Z" fill="white"/>
</mask>
<g mask="url(#mask3_1_3)">
<mask id="mask4_1_3" style="mask-type:luminance" maskUnits="userSpaceOnUse" x="41" y="65" width="27" height="29">
<path d="M54.0885 65.9844C46.9479 65.9844 41.1667 72.1406 41.1667 79.7396C41.1667 87.3333 46.9479 93.4896 54.0885 93.4896C61.224 93.4896 67.0052 87.3333 67.0052 79.7396C67.0052 72.1406 61.224 65.9844 54.0885 65.9844Z" fill="white"/>
</mask>
<g mask="url(#mask4_1_3)">
<path d="M41.1667 65.9844H67.0052V93.5417H41.1667V65.9844Z" fill="white"/>
</g>
</g>
<mask id="mask5_1_3" style="mask-type:luminance" maskUnits="userSpaceOnUse" x="43" y="0" width="82" height="95">
<path d="M43.1406 0.958344H124.323V94.3333H43.1406V0.958344Z" fill="white"/>
</mask>
<g mask="url(#mask5_1_3)">
<path fill-rule="evenodd" clip-rule="evenodd" d="M119.484 7.67709H75.9115V1.76563C75.9115 1.32292 76.2865 0.947922 76.7292 0.947922H118.672C119.115 0.947922 119.484 1.32292 119.484 1.76563V7.67709ZM75.9115 14.5677V10.6458H119.484V14.5677C119.484 15.0365 119.083 15.4375 118.615 15.4375H76.7813C76.3073 15.4375 75.9115 15.0365 75.9115 14.5677ZM58.5469 84.3021C58.5469 87.2188 59.6198 89.8802 61.3958 91.9271C52.8333 95.625 43.151 89.3542 43.151 79.9375C43.151 71.7917 50.5573 65.6354 58.5469 67.0885V84.3021ZM78.9115 84.3021C78.9115 89.0938 75.0052 93 70.2135 93C65.4167 93 61.5156 89.0938 61.5156 84.3021V71.6563H78.9115V84.3021ZM78.9115 68.6875H61.5156V56.0417C61.5156 51.2448 65.4167 47.3438 70.2135 47.3438C75.0052 47.3438 78.9115 51.2448 78.9115 56.0417V68.6875ZM124.333 35.7292C124.333 30.4583 120.042 26.1615 114.766 26.1615H114.474C111.089 26.1615 108.333 23.4063 108.333 20.0208V18.4063H87.0625V20.0208C87.0625 23.4063 84.3073 26.1615 80.9219 26.1615H80.6354C75.3542 26.1615 71.0625 30.4583 71.0625 35.7292V44.4115C77.099 44.849 81.8802 49.8958 81.8802 56.0417V84.3021C81.8802 87.7552 80.3646 90.8698 77.9688 93.0104H119.432C122.135 93.0104 124.333 90.8125 124.333 88.1042V79.4948H101.203C98.9844 79.4948 97.1823 77.6927 97.1823 75.474V42.724C97.1823 40.5104 98.9844 38.7083 101.203 38.7083H124.333V35.7292ZM106.229 61.9167H118.255C119.078 61.9167 119.74 62.5833 119.74 63.401C119.74 64.2188 119.078 64.8854 118.255 64.8854H106.229C105.411 64.8854 104.745 64.2188 104.745 63.401C104.745 62.5833 105.411 61.9167 106.229 61.9167ZM106.229 53.3125H118.255C119.078 53.3125 119.74 53.9792 119.74 54.7969C119.74 55.6198 119.078 56.2865 118.255 56.2865H106.229C105.411 56.2865 104.745 55.6198 104.745 54.7969C104.745 53.9792 105.411 53.3125 106.229 53.3125ZM100.156 42.724C100.156 42.1458 100.625 41.6771 101.203 41.6771H124.333V76.526H101.203C100.625 76.526 100.156 76.0521 100.156 75.474V42.724Z" fill="#1D4ED8"/>
</g>
</svg>
